<svg xmlns="http://www.w3.org/2000/svg" xmlns:xlink="http://www.w3.org/1999/xlink" version="1.1" x="0px" y="0px" viewBox="0 0 48 60" enable-background="new 0 0 48 48" xml:space="preserve">
<g>
<path d="M47.994,31.753c0.033-0.301-0.072-0.602-0.287-0.816l-2.727-2.726c-0.254-0.254-0.628-0.352-0.975-0.256l-8.569,2.383   c-1.926-2.494-4.309-5.358-6.954-8.36l16.406-11.813c0.238-0.171,0.389-0.438,0.412-0.73c0.023-0.292-0.082-0.58-0.289-0.788   l-4.034-4.034c-0.287-0.287-0.719-0.372-1.092-0.216l-20.007,8.348c-0.279-0.283-0.557-0.564-0.834-0.842   c-8.008-8.008-13.357-11.9-16.354-11.9c-0.985,0-1.599,0.406-1.938,0.746c-1.858,1.856,0.232,5.235,0.918,6.345   c1.844,2.981,5.288,7.002,10.234,11.948c0.277,0.277,0.558,0.556,0.841,0.835L4.398,39.885c-0.156,0.374-0.071,0.806,0.216,1.092   l4.034,4.033c0.207,0.207,0.498,0.314,0.787,0.289c0.292-0.023,0.56-0.174,0.731-0.412L21.979,28.48   c3.005,2.647,5.87,5.03,8.362,6.953l-2.384,8.57c-0.097,0.348,0.002,0.72,0.256,0.975l2.726,2.727   c0.189,0.188,0.443,0.293,0.707,0.293c0.037,0,0.074-0.002,0.11-0.006c0.302-0.034,0.571-0.203,0.734-0.459l4.771-7.516   c1.543,0.688,2.42,0.358,2.77,0.011c0.685-0.686,0.459-1.727-0.01-2.771l7.515-4.77C47.791,32.325,47.96,32.056,47.994,31.753z"/>
</g>
</svg>